<?xml version="1.0" encoding="utf-8"?>
<!-- Generator: Adobe Illustrator 26.0.1, SVG Export Plug-In . SVG Version: 6.00 Build 0)  -->
<!DOCTYPE svg PUBLIC "-//W3C//DTD SVG 1.1//EN" "http://www.w3.org/Graphics/SVG/1.1/DTD/svg11.dtd" [
	<!ENTITY ns_extend "http://ns.adobe.com/Extensibility/1.0/">
	<!ENTITY ns_ai "http://ns.adobe.com/AdobeIllustrator/10.0/">
	<!ENTITY ns_graphs "http://ns.adobe.com/Graphs/1.0/">
	<!ENTITY ns_vars "http://ns.adobe.com/Variables/1.0/">
	<!ENTITY ns_imrep "http://ns.adobe.com/ImageReplacement/1.0/">
	<!ENTITY ns_sfw "http://ns.adobe.com/SaveForWeb/1.0/">
	<!ENTITY ns_custom "http://ns.adobe.com/GenericCustomNamespace/1.0/">
	<!ENTITY ns_adobe_xpath "http://ns.adobe.com/XPath/1.0/">
]>
<svg version="1.1" id="Слой_1" xmlns:x="&ns_extend;" xmlns:i="&ns_ai;" xmlns:graph="&ns_graphs;"
	 xmlns="http://www.w3.org/2000/svg" xmlns:xlink="http://www.w3.org/1999/xlink" x="0px" y="0px" width="334.9px" height="58.3px"
	 viewBox="0 0 334.9 58.3" style="enable-background:new 0 0 334.9 58.3;" xml:space="preserve">
<style type="text/css">
	.st0{fill:#FCD79C;}
	.st1{fill:#F8C586;}
	.st2{fill:#E69965;}
</style>
<metadata>
	<sfw  xmlns="&ns_sfw;">
		<slices></slices>
		<sliceSourceBounds  bottomLeftOrigin="true" height="58.3" width="334.9" x="225.9" y="-556.3"></sliceSourceBounds>
	</sfw>
</metadata>
<g>
	<path class="st0" d="M286.6,58.3H6.3c-3.5,0-6.3-2.9-6.3-6.4v-1.4h274.5C276.6,55.1,281.3,58.3,286.6,58.3L286.6,58.3z"/>
	<path class="st0" d="M48.4,58.3h238.2h42c3.5,0,6.3-2.9,6.3-6.4V6.4c0-3.5-2.9-6.4-6.3-6.4h-42H48.4h-42C2.8,0,0,2.9,0,6.4v45.5
		c0,3.5,2.8,6.4,6.3,6.4H48.4z"/>
	<path class="st1" d="M282.7,0c-3,1.3-6,2.5-9.2,3.3C267,4.9,259.7,5.6,253,6.7c-11.7,2-21.8,2.3-33.6,1.9c-4.8-0.1-9.4,1-14.1,1.4
		c-10,0.7-20-1.6-30.2-0.9c-3.8,0.3-7.6,0.7-11.5,0.8c-5.8,0.1-11.7-0.5-17.4-1.2c-5-0.6-10-1.2-14.8-2.3c-4.8-1.1-9.2-2.9-13.5-4.7
		c-0.6-0.3-2.9-0.9-5.1-1.7h9.1c2.5,0.9,5,1.9,7.3,3c1.6,0.8,3.1,1.6,5,2c1.4,0.3,2.7,0.3,4.2,0.4c4.1,0.3,8.1,1.2,12.2,1.7
		c8.2,1.2,16.8,1,25.2,0.7c5.6-0.1,11.3-0.3,16.9-0.5c8.3-0.2,16.6-0.4,24.9-0.7c6.9-0.2,13.7-0.4,20.6-0.5
		c6.8-0.2,13.7-0.4,20.3-1.7c2.7-0.6,5.4-1.3,8.1-1.8c4.3-0.7,9-0.7,12.9-2.2c0.3-0.1,0.7-0.3,1-0.5H282.7z M328.6,0
		c0.1,0,0.3,0,0.5,0c-0.2,0.1-0.4,0.2-0.5,0.4C327.7,1,327,1.8,326,2.3c-2.3,1-5.3,0-8,0.1c-4.4,0.1-7.6,2.9-11.1,4.7
		c-2.6,1.3-6.1,2.3-9.2,2.8c-3.3,0.5-6.8-0.1-9.9,1.1c-1.5,0.6-2.7,1.5-3.9,2.4c-9.1,6.4-22.4,8.2-35,9.8
		c-15.7,1.9-31.7,3.6-47.4,1.9c-5.4-0.6-12.1-0.7-17.6,0c-5.7,0.7-10.4,3.4-16.4,3.3c-4.3-0.1-8.6-0.8-12.5-2.1
		c-2.8-0.9-5.5-2.1-8.4-2.9c-14.7-4.1-32.7,2-46.5-3.5c-3.5-1.4-6.5-3.5-10.4-4c-2.9-0.3-5.9,0.2-8.7-0.3C77.5,15,74.8,12.8,72,11
		C67.4,8.1,61.9,6,56.4,4C52.8,2.6,49,1.2,45.2,0h5.4c1,0.3,1.9,0.5,2.8,0.9c2.1,0.8,3.4,1.9,5.5,2.8C63,5.4,68.3,5,72.4,7
		c3.1,1.5,4.9,4.2,8.1,5.7c4.4,2.1,10.2,1.3,15.4,2c5.3,0.8,9.9,3.1,15.3,3.8c2.7,0.3,5.5,0.2,8.2,0.1c4.9-0.2,9.7-0.9,14.5-0.9
		c-8.8-0.9-17.3-2.4-25.3-5.2c-1.7-0.6-3.5-1.2-4.9-2.1c-1.3-0.8-2.4-1.9-3.7-2.7c-4.6-2.7-12.6-2.9-14.5-7c1.4,0.2,2.7,0.5,4.1,0.9
		c4.2,1.2,8.1,3.2,12,4.9c22.9,9.8,51.1,9.8,77.8,9.6c9.8-0.1,19.6-0.2,29.3-0.3c6.3-0.1,12.6-0.1,18.9-0.4
		c15.8-0.7,31.5-2.7,47.1-4.7c2.2-0.3,4.4-0.6,6.6-0.9c2.3-0.4,4.6-0.9,6.8-1.6c0.5-0.2,1-0.3,1.4-0.5c5.2-1.9,9.5-5.1,14.2-7.7h4.8
		c-4.6,2.8-9.8,5.1-15.1,7.1c0.1,0,0.2,0,0.3,0c4-0.1,8.2,0.4,11.7-0.9c3.9-1.4,6.4-4.8,10.7-5.2c1.4-0.1,2.9,0.1,4.3,0
		c1.6-0.1,3.1-0.5,4.5-1H328.6z M0.6,54.6C1.3,54.3,2,54,2.8,53.9c3.8-0.5,7.1,3,10.9,3.4c3.9,0.4,7.5-2.4,11.3-2.3
		c2,0.1,3.9,0.9,5.8,1.4c7.7,1.8,15-2.6,22.6,0c3,1,6,1.5,9.1,1.8H48.4h-20c-1-0.2-2-0.3-3-0.3c-0.6,0-1.2,0.1-1.9,0.3H10.4
		c-2.5-1.3-4.9-2.9-7.7-2.9c-0.5,0-1.1,0.1-1.6,0.2C0.9,55.2,0.7,54.9,0.6,54.6L0.6,54.6z M110.8,58.3c0.8-1,2.2-1.6,3.6-1.7
		c1.8-0.1,3.6,0.5,5.3,1.1c0.7,0.2,1.5,0.4,2.2,0.6H110.8z M140.1,58.3c1.7-0.4,3.5-0.9,5.2-0.8c1.2,0.1,2.3,0.4,3.4,0.8H140.1z
		 M0,40.3v-2.1c10.3,2.4,20.8,4.2,31.6,4.1c6.8-0.1,13.7-0.9,20.4,0.1c4.8,0.7,9.2,2.3,13.9,3.2c4.3,0.9,8.7,1.1,13.2,1.4
		c9,0.6,18,1.1,27,1.5c11.6,0.5,23.2,1,34.7,0.6c10.2-0.3,20.4-1.3,30.5-0.3c10.7,1,20.9,4.2,31.7,4.7c13.4,0.7,26.4-2.8,39.7-3.9
		c10.4-0.8,20.9-0.2,31.3-0.4c14.1,0,28.3-2.4,42-4.6c6.3-1,12.7-2,19-2.9v2.5c-3.2,0.6-6.4,1-9.7,1c-1.2,0-2.6,0-3.7,0.2
		c-1.4,0.3-2.6,1-3.9,1.3c-1.8,0.5-3.9,0.3-5.9,0.3c-10.7-0.2-20.9,3.2-31.4,4.7c-14.9,2-30.4,0.1-45.4,1.6
		c-14,1.4-28.2,5.9-41.9,3.3c-4.2-0.8-8.1-2.1-12.2-3c-6.3-1.3-12.8-0.1-19.2-0.2c-7.4-0.2-14.8-0.4-22.3-0.7
		c-15.1-0.5-30.2-1-45.4-1.5c-7-0.3-14-0.5-20.9-1.4c-12.3-1.5-24.2-5-36.7-5.6c-6.9-0.3-13.9,0.3-20.6-0.7
		c-4.2-0.6-8.1-1.8-12.2-2.5C2.3,40.6,1.2,40.4,0,40.3L0,40.3z M0,26.6v-2.3c2,0.4,4.1,0.8,6.1,1.1c3.5,0.7,7.5,1.1,10.9,2
		c2.8,0.8,4.8,2.1,8.2,1.9c2-0.1,3.7-0.8,5.6-1.2c1.9-0.5,4-0.6,5.7,0.1c1.5,0.7,2.4,2.1,4,2.6c1.3,0.4,2.8,0.2,4.3,0.3
		c2.5,0.1,4.7,1.3,7.1,1.5c2.8,0.3,5.2-0.3,7.8,0.6c5.1,1.5,9.7,3.3,15.3,3.8c6.7,0.5,13.4-0.5,20.1-0.8c1.5-0.1,3.1-0.1,4.6,0.1
		c1.8,0.3,3.4,0.9,5,1.5c7.3,2.5,15.1,1.9,22.6,3.4c2.5,0.5,4.2,1.7,6.5,2.4c3.9,1.2,7,0.2,11-0.3c3.3-0.4,6.8,0,9.8,1.1
		c0.9,0.3,1.7,0.7,2.6,1c1.9,0.5,4.1,0.3,6.2,0.1c8.4-0.7,16.2-0.3,24.7-0.5c4.6-0.1,10.6,0.3,14.7-1.4c1.1-0.5,2.2-1.1,3.5-1.1
		c2.2-0.1,4,1.3,6.1,1.8c3.7,0.8,7.2-1.3,10.8-2.3c5.6-1.6,11.9-0.6,17.9,0.2c5.3,0.7,10.6,0.6,15.9,0.8c5,0.2,8.7-1,13.7-1.6
		c2.5-0.3,5.1,0,7.6,0c4.8,0,9.6-0.7,14-2.1c2-0.7,4-1.5,6.2-1.8c2-0.3,4.1-0.2,6.1-0.4c2.1-0.2,4.2-0.7,6.2-1.2
		c4.1-1.1,8.9-1.8,12.4-3.7c3.6-2,5.8-4,11-3.8c0.3,0,0.6,0,0.9,0.1v3.3l-0.5,0.2c-9.2,2.8-18.4,5.6-28,7.7c-21.9,4.7-45,5.4-67.9,6
		c-12.4,0.3-24.7,0.6-37.1,1c-24.9,0.7-50.1,1.3-74.2-3.3c-12.5-2.4-25.1-6.3-37.9-4.8c-3.3,0.4-6.7,1.1-10.1,1.1
		c-2.9,0-5.8-0.6-8.6-1.1c-9.8-2-19.7-4-29.5-5.9c-2.5-0.5-5-1-7.5-1.1c-2.2-0.1-4.3,0.2-6.5,0.1c-3.2,0-6.3-0.6-9.4-1.2L0,26.6z
		 M334.7,53.5c-6.2,0.7-12.4,1-18.7,1.9c-2.5,0.3-4.9,0.7-7.4,1.1c-1.7,0.3-3.4,0.5-5.1,0.2c-2.9-0.4-5.6-2.3-8.5-2.1
		c-1.9,0.2-3.5,1.3-5.2,2.1c-5,2.3-9,1.2-14,0.9c-3.8-0.2-7.9,0.3-11.8,0.7h22.6h32.7c0.3-0.1,0.7-0.2,1-0.2c4.3-1,8.6-1.7,13-1.9
		C334,55.4,334.5,54.5,334.7,53.5L334.7,53.5z M250.3,58.3c-3.8-0.3-7.5-0.6-11.3,0H250.3z M334.9,17.3v-1.5c-1,0.2-1.9,0.4-2.9,0.6
		c-8.1,1.8-15.9,4.1-23.4,6.9c-2.7,1-5.9,3.1-8.9,3.5c-3.6,0.5-7.1-1.3-10.8-0.4c-3.2,0.8-5.2,3.3-8.4,4.1c-5,1.3-10.7-0.9-15.9-0.3
		c-5.2,0.5-9.5,3.1-14.5,4.3c-5.7,1.3-11,0.7-16.7,1c-5.6,0.2-10.7,3.1-16.4,1.3c-1.8-0.6-3.4-1.5-5.3-1.8c-2.2-0.2-4.4,0.6-6.4,1.2
		c-3.7,1.1-9.4,0-13.4-0.3c-6.1-0.3-12.6-1.5-17.9,0.7c-1.2,0.5-1.1,2-1.7,1.1c-5.8-0.7-11.8-0.5-17.8-0.7c-0.7,0-1.4,0-2.1-0.2
		c-0.7-0.2-1.3-0.6-2.1-0.8c-2.1-0.5-4.3,0.7-6.5,0.9c-3.9,0.5-7.2-1.7-10.6-2.7c-3.7-1.2-7.8-1.2-11.6-2.3
		c-1.7-0.5-3.3-1.1-5.2-1.2c-2.1-0.1-4.1,0.4-6.2,0.5c-3.6,0.2-7.1-0.8-10.7-1.4c-1.2-0.2-2.4-0.3-3.6-0.4c-3.8-0.1-8,0.9-11.3-0.4
		c-1.9-0.7-3.5-2.2-5.6-2.1c-3.9,0.2-5.2,0.1-8.8-1.4c-2.4-1-4.5-2.5-7.2-2.9c-1.2-0.1-2.4-0.1-3.6-0.1c-4.4-0.2-5.9-2.1-8.9-3.8
		c-2.9-1.7-7.1-2.7-10.5-3.9c-0.3-0.1-0.5-0.2-0.8-0.3l0,0c-5.5-1.9-9.7-3.4-13.4-7l0,0c-0.1-0.1-0.2-0.2-0.3-0.3
		c-2.2-2.2-4.9-4.5-8.6-5.2c-2.1-0.4-3.7-1.3-5.4-2.1H10c4.3,2.5,8.2,5,12.8,7.6c3.4,1.9,6.7,3.9,10.3,5.7
		c22,11.5,48.6,18.5,75.8,19.9c5.1,0.3,10.3,0.3,15.3,1.3c4.4,0.9,8.5,2.6,12.9,3.6c8,1.9,16.2,0.9,24.2,2c6.9,1,13.3-2.2,20.2-1.7
		c7.2,0.5,14.3,0.8,21.6,0c1.9-0.2,3.8-0.5,5.7-0.3c2.2,0.2,4.2,1.1,6.3,1.5c5.9,1.3,9-0.7,14.1-2c8.1-2.1,17.2-0.5,25.5-3.1
		c2-0.6,3.8-1.4,5.9-1.8c5.8-1.2,12-0.4,17.9-0.1c2.6,0.1,4.9,0.4,7.2-0.5c2.1-0.8,3-2.6,5.4-3.1c3.7-0.8,7.7,1,11.7,0.2
		c4.5-1,7.7-3.2,11.5-5.2c3.4-1.7,7.4-2.8,11.3-3.9C328.7,19.3,331.8,18.3,334.9,17.3L334.9,17.3z M286.5,9.4
		c-3.5,1.1-7.1,2-10.7,2.9c-14.1,3.3-28.9,5-43.7,6.6c-9.8,1.1-19.7,2.2-29.6,1.7c-5.3-0.3-10.5-0.9-15.7-1.3
		c-6.9-0.5-13.9-0.5-20.9-0.5c-7.9,0-16-0.1-23.9-0.5c0.1,0,0.2,0,0.3,0.1c8.2,1.7,15.6,5.2,24.2,5.7c8.1,0.5,16-1.8,24.1-2.3
		c7.9-0.5,15.8,0.7,23.7,1c14,0.6,27.9-1.6,41.6-3.7c8.8-1.4,17.9-2.8,25.7-6.2C283.9,11.8,285.1,10.5,286.5,9.4L286.5,9.4z"/>
	<path class="st2" d="M48.4,0h238.2h39.6c4.8,0,8.8,2.9,8.8,6.4l0,0v1.4h-60.5H0V6.4C0,2.9,2.8,0,6.3,0H48.4z"/>
</g>
</svg>
