<?xml version="1.0" encoding="utf-8"?>
<!-- Generator: Adobe Illustrator 26.0.1, SVG Export Plug-In . SVG Version: 6.00 Build 0)  -->
<!DOCTYPE svg PUBLIC "-//W3C//DTD SVG 1.1//EN" "http://www.w3.org/Graphics/SVG/1.1/DTD/svg11.dtd" [
	<!ENTITY ns_extend "http://ns.adobe.com/Extensibility/1.0/">
	<!ENTITY ns_ai "http://ns.adobe.com/AdobeIllustrator/10.0/">
	<!ENTITY ns_graphs "http://ns.adobe.com/Graphs/1.0/">
	<!ENTITY ns_vars "http://ns.adobe.com/Variables/1.0/">
	<!ENTITY ns_imrep "http://ns.adobe.com/ImageReplacement/1.0/">
	<!ENTITY ns_sfw "http://ns.adobe.com/SaveForWeb/1.0/">
	<!ENTITY ns_custom "http://ns.adobe.com/GenericCustomNamespace/1.0/">
	<!ENTITY ns_adobe_xpath "http://ns.adobe.com/XPath/1.0/">
]>
<svg version="1.1" id="Слой_1" xmlns:x="&ns_extend;" xmlns:i="&ns_ai;" xmlns:graph="&ns_graphs;"
	 xmlns="http://www.w3.org/2000/svg" xmlns:xlink="http://www.w3.org/1999/xlink" x="0px" y="0px" width="334.9px" height="58.3px"
	 viewBox="0 0 334.9 58.3" style="enable-background:new 0 0 334.9 58.3;" xml:space="preserve">
<style type="text/css">
	.st0{fill:#FCD79C;}
	.st1{fill:#F8C586;}
	.st2{fill:#E69965;}
</style>
<metadata>
	<sfw  xmlns="&ns_sfw;">
		<slices></slices>
		<sliceSourceBounds  bottomLeftOrigin="true" height="58.3" width="334.9" x="54.3" y="-199.3"></sliceSourceBounds>
	</sfw>
</metadata>
<g>
	<path class="st0" d="M48.4,58.3h238.2h42c3.5,0,6.3-2.9,6.3-6.4V6.4c0-3.5-2.8-6.4-6.3-6.4h-42H48.4h-42C2.8,0,0,2.9,0,6.4v45.5
		c0,3.5,2.8,6.4,6.3,6.4H48.4z"/>
	<path class="st1" d="M282.7,0c-3,1.1-6,2.2-9.2,2.9C267,4.2,259.7,4.8,253,5.8c-11.7,1.7-21.8,1.9-33.6,1.6
		c-4.8-0.1-9.4,0.9-14.1,1.2c-10,0.6-20-1.4-30.2-0.8c-3.8,0.2-7.6,0.6-11.5,0.7c-5.8,0.1-11.7-0.4-17.4-1c-5-0.5-10-1-14.8-2
		c-4.8-1-9.2-2.4-13.5-4c-0.6-0.2-2.9-0.8-5.1-1.4h9.1c2.5,0.8,5,1.6,7.3,2.6c1.6,0.7,3.1,1.4,5,1.7c1.4,0.2,2.8,0.2,4.2,0.3
		c4.1,0.2,8.1,1,12.2,1.5c8.2,1,16.8,0.8,25.2,0.6c5.6-0.1,11.3-0.3,16.9-0.4c8.3-0.2,16.6-0.4,24.9-0.6c6.9-0.1,13.7-0.3,20.6-0.5
		c6.8-0.2,13.7-0.3,20.2-1.5c2.7-0.5,5.4-1.1,8.1-1.5c4.4-0.6,9-0.6,12.9-1.9c0.3-0.1,0.7-0.2,1-0.4H282.7z M328.6,0
		c0.2,0,0.3,0,0.5,0c-0.2,0.1-0.3,0.2-0.5,0.3c-0.9,0.5-1.6,1.2-2.6,1.6c-2.3,0.9-5.3,0-8,0.1c-4.4,0.1-7.5,2.5-11.1,4
		c-2.6,1.1-6.1,2-9.2,2.4c-3.3,0.4-6.8-0.1-9.9,0.9c-1.5,0.5-2.7,1.3-3.9,2.1c-9.1,5.4-22.4,7-35,8.3c-15.7,1.6-31.7,3.1-47.4,1.7
		c-5.4-0.5-12.1-0.6-17.6,0c-5.6,0.6-10.4,2.9-16.4,2.8c-4.3-0.1-8.5-0.7-12.5-1.8c-2.8-0.7-5.5-1.8-8.4-2.5
		c-14.7-3.5-32.7,1.7-46.5-3c-3.5-1.2-6.5-3-10.4-3.4c-2.9-0.3-5.9,0.2-8.7-0.2c-3.7-0.5-6.3-2.4-9.1-4c-4.6-2.5-10.1-4.3-15.6-6
		C52.8,2.2,49,1,45.2,0h5.4c1,0.2,1.9,0.5,2.8,0.7c2.1,0.7,3.4,1.6,5.5,2.4C63,4.6,68.3,4.3,72.4,6c3.1,1.3,4.9,3.6,8.1,4.9
		c4.4,1.8,10.2,1.1,15.4,1.7c5.3,0.6,9.9,2.7,15.3,3.2c2.7,0.3,5.4,0.2,8.2,0.1c4.9-0.2,9.7-0.7,14.5-0.8
		c-8.8-0.8-17.3-2.1-25.3-4.4c-1.7-0.5-3.5-1.1-4.9-1.8c-1.3-0.7-2.4-1.6-3.7-2.3c-4.6-2.3-12.6-2.5-14.5-6c1.4,0.1,2.7,0.4,4.1,0.7
		c4.2,1,8.1,2.7,12,4.2c22.9,8.4,51.1,8.5,77.8,8.3c9.8-0.1,19.5-0.1,29.3-0.2c6.3-0.1,12.6-0.1,18.9-0.3c15.8-0.6,31.5-2.3,47.1-4
		c2.2-0.3,4.4-0.5,6.5-0.8c2.3-0.3,4.6-0.7,6.8-1.3c0.5-0.1,1-0.3,1.4-0.4c5.2-1.6,9.5-4.4,14.2-6.6h4.8c-4.6,2.4-9.8,4.4-15.1,6.1
		c0.1,0,0.2,0,0.3,0c4-0.1,8.2,0.3,11.7-0.8c3.9-1.2,6.4-4.1,10.7-4.4c1.4-0.1,2.9,0.1,4.3,0c1.6-0.1,3.1-0.4,4.5-0.9H328.6z
		 M0,47.8V47c0.9-0.4,1.8-0.7,2.8-0.8c3.8-0.4,7.1,2.6,10.9,2.9s7.4-2.1,11.3-1.9c2,0.1,3.9,0.8,5.8,1.2c7.7,1.5,15-2.2,22.6,0
		c6.8,2,13.8,1.7,20.8,2.1H60.5c-0.3,0.5-0.5,1.1-0.9,1.5c-4-0.4-7.8-1-11.8-1.8c-5-1-9.9,1.3-15,0.6c-2.5-0.4-5-1.2-7.5-1.1
		c-3.3,0.1-6.3,1.9-9.6,1.8c-4.6-0.2-8.3-4.1-13-4.1C1.8,47.4,0.9,47.6,0,47.8L0,47.8z M100.5,50.5c0.7-0.1,1.4-0.1,2.1-0.2
		c2.1-0.2,4.3-0.4,6.3,0.2H100.5z M110.4,50.5c0.7-1.2,2.4-1.9,4-2c1.8-0.1,3.6,0.5,5.3,0.9c1.9,0.5,3.9,0.9,5.8,1.1H110.4z
		 M136.5,50.5c1.2-0.1,2.4-0.3,3.6-0.6c1.7-0.3,3.5-0.8,5.2-0.7c1.4,0.1,2.7,0.5,4.1,0.9c0.5,0.1,1,0.3,1.5,0.4H136.5z M0,34.5v-1.8
		c10.3,2.1,20.8,3.6,31.6,3.5c6.8-0.1,13.7-0.8,20.4,0c4.8,0.6,9.2,2,13.9,2.8c4.3,0.7,8.7,1,13.2,1.2c9,0.5,18,0.9,27,1.2
		c11.6,0.5,23.2,0.8,34.7,0.5c10.2-0.3,20.4-1.1,30.5-0.3c10.7,0.9,20.9,3.6,31.7,4.1c13.4,0.5,26.4-2.4,39.7-3.3
		c10.4-0.7,20.9-0.1,31.3-0.3c14,0,28.3-2.1,41.9-3.9c6.3-0.9,12.7-1.7,19-2.5v2.1c-3.2,0.5-6.4,0.9-9.7,0.9c-1.2,0-2.6,0-3.7,0.2
		c-1.4,0.3-2.6,0.8-3.9,1.1c-1.8,0.4-3.9,0.3-5.9,0.3c-10.7-0.2-20.9,2.7-31.4,4c-14.9,1.7-30.4,0.1-45.4,1.4
		c-14.1,1.2-28.2,5-42,2.9c-4.2-0.7-8.1-1.9-12.2-2.6c-6.3-1.1-12.8,0-19.2-0.2c-7.4-0.2-14.9-0.3-22.3-0.5
		c-15.1-0.4-30.3-0.8-45.4-1.3c-7-0.2-14-0.5-20.9-1.2c-12.4-1.3-24.2-4.3-36.7-4.8c-6.9-0.3-13.9,0.2-20.6-0.6
		c-4.2-0.5-8.1-1.5-12.2-2.2C2.3,34.8,1.2,34.6,0,34.5L0,34.5z M0,22.8v-2c2,0.3,4.1,0.7,6.1,1c3.5,0.6,7.5,0.9,10.9,1.7
		c2.8,0.7,4.8,1.8,8.2,1.6c2-0.1,3.7-0.7,5.6-1.1c1.9-0.4,4-0.5,5.7,0.1c1.5,0.6,2.3,1.8,4,2.2c1.3,0.3,2.8,0.1,4.3,0.2
		c2.5,0.1,4.7,1.1,7.1,1.3c2.8,0.2,5.2-0.2,7.8,0.5c5.1,1.3,9.7,2.9,15.3,3.2c6.7,0.4,13.4-0.5,20.2-0.7c1.5-0.1,3-0.1,4.5,0.1
		c1.8,0.2,3.4,0.8,5,1.3c7.3,2.1,15.1,1.6,22.6,2.9c2.5,0.4,4.2,1.4,6.5,2.1c3.9,1.1,7,0.1,11-0.3c3.3-0.3,6.8,0,9.8,0.9
		c0.9,0.3,1.7,0.6,2.6,0.8c2,0.5,4.1,0.3,6.2,0.1c8.4-0.6,16.2-0.3,24.7-0.5c4.6-0.1,10.6,0.2,14.7-1.2c1.1-0.4,2.2-0.9,3.5-1
		c2.2-0.1,4,1.1,6.1,1.5c3.7,0.7,7.2-1.1,10.8-2c5.6-1.4,11.9-0.5,17.9,0.2c5.3,0.6,10.6,0.5,15.9,0.7c5,0.2,8.7-0.9,13.7-1.3
		c2.5-0.2,5.1,0,7.6,0c4.8,0,9.6-0.6,14-1.8c2-0.6,4-1.3,6.2-1.5c2-0.3,4-0.2,6-0.3c2.1-0.2,4.2-0.6,6.2-1c4.1-0.9,8.9-1.5,12.4-3.2
		c3.6-1.7,5.8-3.4,11-3.3c0.3,0,0.6,0,0.9,0.1V27l-0.5,0.1c-9.2,2.4-18.5,4.8-28.1,6.6c-21.9,4.1-45,4.6-67.9,5.1
		c-12.4,0.3-24.8,0.6-37.1,0.8c-24.9,0.6-50.1,1.1-74.2-2.9c-12.5-2.1-25.1-5.4-37.9-4.1c-3.3,0.3-6.7,1-10.1,1
		c-2.9,0-5.8-0.5-8.6-1c-9.8-1.7-19.7-3.4-29.5-5.1c-2.5-0.4-5-0.9-7.5-0.9c-2.2-0.1-4.3,0.1-6.5,0.1c-3.2,0-6.3-0.5-9.4-1.1L0,22.8
		z M334.9,48.1v-2.3c-6.3,0.7-12.6,0.9-18.9,1.7c-2.5,0.3-4.9,0.6-7.4,0.9c-1.7,0.2-3.4,0.4-5.1,0.2c-2.9-0.4-5.6-2-8.5-1.8
		c-1.9,0.1-3.5,1.1-5.2,1.8c-5,2-9,1-14,0.7c-5.5-0.3-11.4,0.8-16.9,1c-7.7,0.3-15.2-1.7-23,0.2h58.3c0.2,0,0.4,0,0.6,0h21.7
		c1.2-0.3,2.4-0.5,3.6-0.8C325.1,48.8,330,48.2,334.9,48.1L334.9,48.1z M334.9,14.8v-1.3c-1,0.2-1.9,0.3-2.9,0.5
		c-8.1,1.5-15.9,3.5-23.4,5.9c-2.7,0.9-5.9,2.6-8.9,3c-3.6,0.4-7.1-1.1-10.8-0.3c-3.2,0.7-5.2,2.8-8.4,3.6c-5,1.1-10.7-0.7-15.9-0.3
		c-5.2,0.5-9.5,2.7-14.5,3.6c-5.7,1.1-11,0.7-16.7,0.9c-5.6,0.2-10.7,2.6-16.4,1.1c-1.8-0.5-3.3-1.3-5.3-1.5c-2.2-0.2-4.3,0.5-6.4,1
		c-3.7,1-9.4,0-13.4-0.2c-6.1-0.3-12.6-1.3-17.9,0.6c-1.2,0.4-1.1,1.7-1.7,1c-5.8-0.6-11.8-0.4-17.8-0.6c-0.7,0-1.4-0.1-2.1-0.2
		c-0.7-0.2-1.3-0.5-2.1-0.7c-2.1-0.5-4.3,0.5-6.5,0.8c-3.9,0.4-7.2-1.5-10.6-2.4c-3.7-1-7.8-1-11.6-1.9c-1.7-0.4-3.3-0.9-5.2-1
		c-2.1-0.1-4.1,0.3-6.2,0.4c-3.6,0.2-7.1-0.7-10.7-1.2c-1.2-0.2-2.4-0.3-3.7-0.3c-3.8-0.1-8,0.8-11.3-0.4c-1.9-0.7-3.4-1.9-5.6-1.8
		c-3.9,0.2-5.2,0.1-8.8-1.2c-2.4-0.8-4.5-2.1-7.2-2.4c-1.2-0.1-2.4-0.1-3.6-0.1c-4.4-0.2-5.9-1.8-8.9-3.3c-2.9-1.5-7.1-2.3-10.5-3.3
		c-0.3-0.1-0.5-0.1-0.8-0.2l0,0c-5.5-1.6-9.6-2.9-13.4-6l0,0c-0.1-0.1-0.2-0.1-0.3-0.2c-2.2-1.9-4.9-3.9-8.6-4.4
		c-2.1-0.3-3.7-1.1-5.4-1.8H10c4.3,2.2,8.2,4.3,12.8,6.6c3.4,1.7,6.8,3.3,10.3,4.9c22,9.9,48.6,15.9,75.8,17.1
		c5.1,0.2,10.3,0.3,15.3,1.2c4.5,0.8,8.5,2.2,12.9,3.1c8,1.6,16.2,0.7,24.2,1.7c6.9,0.8,13.3-1.9,20.2-1.5c7.2,0.5,14.3,0.7,21.6,0
		c1.9-0.2,3.8-0.4,5.7-0.3c2.2,0.2,4.2,0.9,6.4,1.3c5.8,1.1,9-0.6,14.1-1.7c8.1-1.8,17.1-0.5,25.5-2.7c2-0.5,3.9-1.2,5.9-1.5
		c5.8-1.1,12-0.4,17.9-0.1c2.6,0.1,4.9,0.3,7.2-0.4c2.1-0.7,3-2.2,5.4-2.7c3.7-0.7,7.7,0.9,11.7,0.1c4.5-0.8,7.7-2.8,11.5-4.4
		c3.4-1.5,7.4-2.4,11.3-3.3C328.7,16.5,331.8,15.7,334.9,14.8L334.9,14.8z M286.5,8c-3.5,0.9-7.1,1.8-10.7,2.5
		c-14.1,2.8-28.9,4.3-43.7,5.7c-9.8,0.9-19.7,1.9-29.6,1.5c-5.3-0.2-10.5-0.8-15.7-1.1c-6.9-0.4-13.9-0.4-20.8-0.4
		c-7.9,0-16,0-24-0.5c0.1,0,0.2,0,0.3,0.1c8.2,1.4,15.6,4.4,24.2,4.8c8.1,0.4,16-1.5,24.1-2c7.9-0.4,15.8,0.6,23.7,0.9
		c14,0.5,27.9-1.4,41.5-3.2c8.8-1.2,17.9-2.4,25.7-5.3C283.9,10.1,285.1,9,286.5,8L286.5,8z"/>
	<path class="st2" d="M48.4,58.3h238.2h39.6c4.8,0,8.8-2.9,8.8-6.4l0,0v-1.4h-60.5H0v1.4c0,3.5,2.8,6.4,6.3,6.4H48.4z"/>
</g>
</svg>
